<?xml version="1.0" standalone="no"?>
 <!DOCTYPE svg PUBLIC "-//W3C//DTD SVG 1.1//EN" 
 "http://www.w3.org/Graphics/SVG/1.1/DTD/svg11.dtd"> 
<svg
  xmlns:svg="http://www.w3.org/2000/svg"
  xmlns="http://www.w3.org/2000/svg"
  xmlns:xlink="http://www.w3.org/1999/xlink"
  version="1.1"
  width="29.700220cm" height="21.000720cm" viewBox="0 0 116930 82680">
<title>SVG Picture created as Phone_ext_Mic_adapter.svg date 2020/06/11 15:17:07 </title>
  <desc>Picture generated by Eeschema-SVG </desc>
<g style="fill:#000000; fill-opacity:1;stroke:#000000; stroke-opacity:1;
stroke-linecap:round; stroke-linejoin:round;"
 transform="translate(0 0) scale(1 1)">
</g>
<g style="fill:#000000; fill-opacity:0.0; 
stroke:#000000; stroke-width:-10; stroke-opacity:1; 
stroke-linecap:round; stroke-linejoin:round;">
</g>
<g style="fill:#000000; fill-opacity:0.0; 
stroke:#000000; stroke-width:100; stroke-opacity:1; 
stroke-linecap:round; stroke-linejoin:round;">
</g>
<g style="fill:#000000; fill-opacity:0.0; 
stroke:#000000; stroke-width:60; stroke-opacity:1; 
stroke-linecap:round; stroke-linejoin:round;">
<rect x="69690" y="65360" width="42520" height="12600" rx="0" />
</g>
<g style="fill:#000000; fill-opacity:0.0; 
stroke:#000000; stroke-width:100; stroke-opacity:1; 
stroke-linecap:round; stroke-linejoin:round;">
</g>
<g style="fill:#000000; fill-opacity:0.0; 
stroke:#000000; stroke-width:60; stroke-opacity:1; 
stroke-linecap:round; stroke-linejoin:round;">
<rect x="3940" y="3940" width="109050" height="74800" rx="0" />
</g>
<g style="fill:#000000; fill-opacity:0.0; 
stroke:#000000; stroke-width:100; stroke-opacity:1; 
stroke-linecap:round; stroke-linejoin:round;">
</g>
<g style="fill:#000000; fill-opacity:0.0; 
stroke:#000000; stroke-width:60; stroke-opacity:1; 
stroke-linecap:round; stroke-linejoin:round;">
<rect x="4720" y="4720" width="107490" height="73240" rx="0" />
</g>
<g style="fill:#000000; fill-opacity:0.0; 
stroke:#000000; stroke-width:100; stroke-opacity:1; 
stroke-linecap:round; stroke-linejoin:round;">
</g>
<g style="fill:#000000; fill-opacity:0.0; 
stroke:#000000; stroke-width:60; stroke-opacity:1; 
stroke-linecap:round; stroke-linejoin:round;">
<path d="M23620 4720
L23620 3940
" />
</g>
<g style="fill:#000000; fill-opacity:0.0; 
stroke:#000000; stroke-width:100; stroke-opacity:1; 
stroke-linecap:round; stroke-linejoin:round;">
</g>
<g style="fill:#000000; fill-opacity:0.0; 
stroke:#000000; stroke-width:60; stroke-opacity:1; 
stroke-linecap:round; stroke-linejoin:round;">
<path d="M43310 4720
L43310 3940
" />
</g>
<g style="fill:#000000; fill-opacity:0.0; 
stroke:#000000; stroke-width:100; stroke-opacity:1; 
stroke-linecap:round; stroke-linejoin:round;">
</g>
<g style="fill:#000000; fill-opacity:0.0; 
stroke:#000000; stroke-width:60; stroke-opacity:1; 
stroke-linecap:round; stroke-linejoin:round;">
<path d="M62990 4720
L62990 3940
" />
</g>
<g style="fill:#000000; fill-opacity:0.0; 
stroke:#000000; stroke-width:100; stroke-opacity:1; 
stroke-linecap:round; stroke-linejoin:round;">
</g>
<g style="fill:#000000; fill-opacity:0.0; 
stroke:#000000; stroke-width:60; stroke-opacity:1; 
stroke-linecap:round; stroke-linejoin:round;">
<path d="M82680 4720
L82680 3940
" />
</g>
<g style="fill:#000000; fill-opacity:0.0; 
stroke:#000000; stroke-width:100; stroke-opacity:1; 
stroke-linecap:round; stroke-linejoin:round;">
</g>
<g style="fill:#000000; fill-opacity:0.0; 
stroke:#000000; stroke-width:60; stroke-opacity:1; 
stroke-linecap:round; stroke-linejoin:round;">
<path d="M102360 4720
L102360 3940
" />
</g>
<g style="fill:#000000; fill-opacity:0.0; 
stroke:#000000; stroke-width:100; stroke-opacity:1; 
stroke-linecap:round; stroke-linejoin:round;">
</g>
<g style="fill:#000000; fill-opacity:0.0; 
stroke:#000000; stroke-width:60; stroke-opacity:1; 
stroke-linecap:round; stroke-linejoin:round;">
<text x="13780" y="4580"
textLength="550" font-size="680" lengthAdjust="spacingAndGlyphs"
text-anchor="start" opacity="0">1</text>
<path d="M14190 4560
L13900 4560
" />
<path d="M14050 4560
L14050 4050
L14000 4120
L13950 4170
L13900 4190
" />
</g>
<g style="fill:#000000; fill-opacity:0.0; 
stroke:#000000; stroke-width:100; stroke-opacity:1; 
stroke-linecap:round; stroke-linejoin:round;">
</g>
<g style="fill:#000000; fill-opacity:0.0; 
stroke:#000000; stroke-width:60; stroke-opacity:1; 
stroke-linecap:round; stroke-linejoin:round;">
<text x="33460" y="4580"
textLength="550" font-size="680" lengthAdjust="spacingAndGlyphs"
text-anchor="start" opacity="0">2</text>
<path d="M33580 4090
L33610 4070
L33660 4050
L33780 4050
L33830 4070
L33850 4090
L33870 4140
L33870 4190
L33850 4260
L33560 4560
L33870 4560
" />
</g>
<g style="fill:#000000; fill-opacity:0.0; 
stroke:#000000; stroke-width:100; stroke-opacity:1; 
stroke-linecap:round; stroke-linejoin:round;">
</g>
<g style="fill:#000000; fill-opacity:0.0; 
stroke:#000000; stroke-width:60; stroke-opacity:1; 
stroke-linecap:round; stroke-linejoin:round;">
<text x="53150" y="4580"
textLength="550" font-size="680" lengthAdjust="spacingAndGlyphs"
text-anchor="start" opacity="0">3</text>
<path d="M53250 4050
L53560 4050
L53390 4240
L53470 4240
L53520 4260
L53540 4290
L53560 4340
L53560 4460
L53540 4510
L53520 4530
L53470 4560
L53320 4560
L53270 4530
L53250 4510
" />
</g>
<g style="fill:#000000; fill-opacity:0.0; 
stroke:#000000; stroke-width:100; stroke-opacity:1; 
stroke-linecap:round; stroke-linejoin:round;">
</g>
<g style="fill:#000000; fill-opacity:0.0; 
stroke:#000000; stroke-width:60; stroke-opacity:1; 
stroke-linecap:round; stroke-linejoin:round;">
<text x="72830" y="4580"
textLength="550" font-size="680" lengthAdjust="spacingAndGlyphs"
text-anchor="start" opacity="0">4</text>
<path d="M73200 4220
L73200 4560
" />
<path d="M73070 4020
L72950 4390
L73270 4390
" />
</g>
<g style="fill:#000000; fill-opacity:0.0; 
stroke:#000000; stroke-width:100; stroke-opacity:1; 
stroke-linecap:round; stroke-linejoin:round;">
</g>
<g style="fill:#000000; fill-opacity:0.0; 
stroke:#000000; stroke-width:60; stroke-opacity:1; 
stroke-linecap:round; stroke-linejoin:round;">
<text x="92520" y="4580"
textLength="550" font-size="680" lengthAdjust="spacingAndGlyphs"
text-anchor="start" opacity="0">5</text>
<path d="M92910 4050
L92670 4050
L92640 4290
L92670 4260
L92720 4240
L92840 4240
L92890 4260
L92910 4290
L92930 4340
L92930 4460
L92910 4510
L92890 4530
L92840 4560
L92720 4560
L92670 4530
L92640 4510
" />
</g>
<g style="fill:#000000; fill-opacity:0.0; 
stroke:#000000; stroke-width:100; stroke-opacity:1; 
stroke-linecap:round; stroke-linejoin:round;">
</g>
<g style="fill:#000000; fill-opacity:0.0; 
stroke:#000000; stroke-width:60; stroke-opacity:1; 
stroke-linecap:round; stroke-linejoin:round;">
<text x="112200" y="4580"
textLength="550" font-size="680" lengthAdjust="spacingAndGlyphs"
text-anchor="start" opacity="0">6</text>
<path d="M112570 4050
L112470 4050
L112420 4070
L112400 4090
L112350 4170
L112320 4260
L112320 4460
L112350 4510
L112370 4530
L112420 4560
L112520 4560
L112570 4530
L112590 4510
L112610 4460
L112610 4340
L112590 4290
L112570 4260
L112520 4240
L112420 4240
L112370 4260
L112350 4290
L112320 4340
" />
</g>
<g style="fill:#000000; fill-opacity:0.0; 
stroke:#000000; stroke-width:100; stroke-opacity:1; 
stroke-linecap:round; stroke-linejoin:round;">
</g>
<g style="fill:#000000; fill-opacity:0.0; 
stroke:#000000; stroke-width:60; stroke-opacity:1; 
stroke-linecap:round; stroke-linejoin:round;">
<path d="M23620 77960
L23620 78740
" />
</g>
<g style="fill:#000000; fill-opacity:0.0; 
stroke:#000000; stroke-width:100; stroke-opacity:1; 
stroke-linecap:round; stroke-linejoin:round;">
</g>
<g style="fill:#000000; fill-opacity:0.0; 
stroke:#000000; stroke-width:60; stroke-opacity:1; 
stroke-linecap:round; stroke-linejoin:round;">
<path d="M43310 77960
L43310 78740
" />
</g>
<g style="fill:#000000; fill-opacity:0.0; 
stroke:#000000; stroke-width:100; stroke-opacity:1; 
stroke-linecap:round; stroke-linejoin:round;">
</g>
<g style="fill:#000000; fill-opacity:0.0; 
stroke:#000000; stroke-width:60; stroke-opacity:1; 
stroke-linecap:round; stroke-linejoin:round;">
<path d="M62990 77960
L62990 78740
" />
</g>
<g style="fill:#000000; fill-opacity:0.0; 
stroke:#000000; stroke-width:100; stroke-opacity:1; 
stroke-linecap:round; stroke-linejoin:round;">
</g>
<g style="fill:#000000; fill-opacity:0.0; 
stroke:#000000; stroke-width:60; stroke-opacity:1; 
stroke-linecap:round; stroke-linejoin:round;">
<path d="M82680 77960
L82680 78740
" />
</g>
<g style="fill:#000000; fill-opacity:0.0; 
stroke:#000000; stroke-width:100; stroke-opacity:1; 
stroke-linecap:round; stroke-linejoin:round;">
</g>
<g style="fill:#000000; fill-opacity:0.0; 
stroke:#000000; stroke-width:60; stroke-opacity:1; 
stroke-linecap:round; stroke-linejoin:round;">
<path d="M102360 77960
L102360 78740
" />
</g>
<g style="fill:#000000; fill-opacity:0.0; 
stroke:#000000; stroke-width:100; stroke-opacity:1; 
stroke-linecap:round; stroke-linejoin:round;">
</g>
<g style="fill:#000000; fill-opacity:0.0; 
stroke:#000000; stroke-width:60; stroke-opacity:1; 
stroke-linecap:round; stroke-linejoin:round;">
<text x="13780" y="78600"
textLength="550" font-size="680" lengthAdjust="spacingAndGlyphs"
text-anchor="start" opacity="0">1</text>
<path d="M14190 78580
L13900 78580
" />
<path d="M14050 78580
L14050 78070
L14000 78140
L13950 78190
L13900 78210
" />
</g>
<g style="fill:#000000; fill-opacity:0.0; 
stroke:#000000; stroke-width:100; stroke-opacity:1; 
stroke-linecap:round; stroke-linejoin:round;">
</g>
<g style="fill:#000000; fill-opacity:0.0; 
stroke:#000000; stroke-width:60; stroke-opacity:1; 
stroke-linecap:round; stroke-linejoin:round;">
<text x="33460" y="78600"
textLength="550" font-size="680" lengthAdjust="spacingAndGlyphs"
text-anchor="start" opacity="0">2</text>
<path d="M33580 78110
L33610 78090
L33660 78070
L33780 78070
L33830 78090
L33850 78110
L33870 78160
L33870 78210
L33850 78280
L33560 78580
L33870 78580
" />
</g>
<g style="fill:#000000; fill-opacity:0.0; 
stroke:#000000; stroke-width:100; stroke-opacity:1; 
stroke-linecap:round; stroke-linejoin:round;">
</g>
<g style="fill:#000000; fill-opacity:0.0; 
stroke:#000000; stroke-width:60; stroke-opacity:1; 
stroke-linecap:round; stroke-linejoin:round;">
<text x="53150" y="78600"
textLength="550" font-size="680" lengthAdjust="spacingAndGlyphs"
text-anchor="start" opacity="0">3</text>
<path d="M53250 78070
L53560 78070
L53390 78260
L53470 78260
L53520 78280
L53540 78310
L53560 78360
L53560 78480
L53540 78530
L53520 78550
L53470 78580
L53320 78580
L53270 78550
L53250 78530
" />
</g>
<g style="fill:#000000; fill-opacity:0.0; 
stroke:#000000; stroke-width:100; stroke-opacity:1; 
stroke-linecap:round; stroke-linejoin:round;">
</g>
<g style="fill:#000000; fill-opacity:0.0; 
stroke:#000000; stroke-width:60; stroke-opacity:1; 
stroke-linecap:round; stroke-linejoin:round;">
<text x="72830" y="78600"
textLength="550" font-size="680" lengthAdjust="spacingAndGlyphs"
text-anchor="start" opacity="0">4</text>
<path d="M73200 78240
L73200 78580
" />
<path d="M73070 78040
L72950 78410
L73270 78410
" />
</g>
<g style="fill:#000000; fill-opacity:0.0; 
stroke:#000000; stroke-width:100; stroke-opacity:1; 
stroke-linecap:round; stroke-linejoin:round;">
</g>
<g style="fill:#000000; fill-opacity:0.0; 
stroke:#000000; stroke-width:60; stroke-opacity:1; 
stroke-linecap:round; stroke-linejoin:round;">
<text x="92520" y="78600"
textLength="550" font-size="680" lengthAdjust="spacingAndGlyphs"
text-anchor="start" opacity="0">5</text>
<path d="M92910 78070
L92670 78070
L92640 78310
L92670 78280
L92720 78260
L92840 78260
L92890 78280
L92910 78310
L92930 78360
L92930 78480
L92910 78530
L92890 78550
L92840 78580
L92720 78580
L92670 78550
L92640 78530
" />
</g>
<g style="fill:#000000; fill-opacity:0.0; 
stroke:#000000; stroke-width:100; stroke-opacity:1; 
stroke-linecap:round; stroke-linejoin:round;">
</g>
<g style="fill:#000000; fill-opacity:0.0; 
stroke:#000000; stroke-width:60; stroke-opacity:1; 
stroke-linecap:round; stroke-linejoin:round;">
<text x="112200" y="78600"
textLength="550" font-size="680" lengthAdjust="spacingAndGlyphs"
text-anchor="start" opacity="0">6</text>
<path d="M112570 78070
L112470 78070
L112420 78090
L112400 78110
L112350 78190
L112320 78280
L112320 78480
L112350 78530
L112370 78550
L112420 78580
L112520 78580
L112570 78550
L112590 78530
L112610 78480
L112610 78360
L112590 78310
L112570 78280
L112520 78260
L112420 78260
L112370 78280
L112350 78310
L112320 78360
" />
</g>
<g style="fill:#000000; fill-opacity:0.0; 
stroke:#000000; stroke-width:100; stroke-opacity:1; 
stroke-linecap:round; stroke-linejoin:round;">
</g>
<g style="fill:#000000; fill-opacity:0.0; 
stroke:#000000; stroke-width:60; stroke-opacity:1; 
stroke-linecap:round; stroke-linejoin:round;">
<path d="M3940 23620
L4720 23620
" />
</g>
<g style="fill:#000000; fill-opacity:0.0; 
stroke:#000000; stroke-width:100; stroke-opacity:1; 
stroke-linecap:round; stroke-linejoin:round;">
</g>
<g style="fill:#000000; fill-opacity:0.0; 
stroke:#000000; stroke-width:60; stroke-opacity:1; 
stroke-linecap:round; stroke-linejoin:round;">
<path d="M3940 43310
L4720 43310
" />
</g>
<g style="fill:#000000; fill-opacity:0.0; 
stroke:#000000; stroke-width:100; stroke-opacity:1; 
stroke-linecap:round; stroke-linejoin:round;">
</g>
<g style="fill:#000000; fill-opacity:0.0; 
stroke:#000000; stroke-width:60; stroke-opacity:1; 
stroke-linecap:round; stroke-linejoin:round;">
<path d="M3940 62990
L4720 62990
" />
</g>
<g style="fill:#000000; fill-opacity:0.0; 
stroke:#000000; stroke-width:100; stroke-opacity:1; 
stroke-linecap:round; stroke-linejoin:round;">
</g>
<g style="fill:#000000; fill-opacity:0.0; 
stroke:#000000; stroke-width:60; stroke-opacity:1; 
stroke-linecap:round; stroke-linejoin:round;">
<text x="4330" y="14030"
textLength="500" font-size="680" lengthAdjust="spacingAndGlyphs"
text-anchor="middle" opacity="0">A</text>
<path d="M4200 13860
L4450 13860
" />
<path d="M4160 14010
L4330 13500
L4500 14010
" />
</g>
<g style="fill:#000000; fill-opacity:0.0; 
stroke:#000000; stroke-width:100; stroke-opacity:1; 
stroke-linecap:round; stroke-linejoin:round;">
</g>
<g style="fill:#000000; fill-opacity:0.0; 
stroke:#000000; stroke-width:60; stroke-opacity:1; 
stroke-linecap:round; stroke-linejoin:round;">
<text x="4330" y="33710"
textLength="570" font-size="680" lengthAdjust="spacingAndGlyphs"
text-anchor="middle" opacity="0">B</text>
<path d="M4360 33420
L4430 33440
L4460 33470
L4480 33520
L4480 33590
L4460 33640
L4430 33660
L4390 33690
L4190 33690
L4190 33180
L4360 33180
L4410 33200
L4430 33220
L4460 33270
L4460 33320
L4430 33370
L4410 33390
L4360 33420
L4190 33420
" />
</g>
<g style="fill:#000000; fill-opacity:0.0; 
stroke:#000000; stroke-width:100; stroke-opacity:1; 
stroke-linecap:round; stroke-linejoin:round;">
</g>
<g style="fill:#000000; fill-opacity:0.0; 
stroke:#000000; stroke-width:60; stroke-opacity:1; 
stroke-linecap:round; stroke-linejoin:round;">
<text x="4330" y="53400"
textLength="570" font-size="680" lengthAdjust="spacingAndGlyphs"
text-anchor="middle" opacity="0">C</text>
<path d="M4480 53330
L4460 53350
L4390 53380
L4340 53380
L4260 53350
L4220 53300
L4190 53250
L4170 53160
L4170 53080
L4190 52990
L4220 52940
L4260 52890
L4340 52870
L4390 52870
L4460 52890
L4480 52910
" />
</g>
<g style="fill:#000000; fill-opacity:0.0; 
stroke:#000000; stroke-width:100; stroke-opacity:1; 
stroke-linecap:round; stroke-linejoin:round;">
</g>
<g style="fill:#000000; fill-opacity:0.0; 
stroke:#000000; stroke-width:60; stroke-opacity:1; 
stroke-linecap:round; stroke-linejoin:round;">
<text x="4330" y="73080"
textLength="570" font-size="680" lengthAdjust="spacingAndGlyphs"
text-anchor="middle" opacity="0">D</text>
<path d="M4190 73060
L4190 72550
L4310 72550
L4390 72570
L4430 72620
L4460 72670
L4480 72760
L4480 72840
L4460 72930
L4430 72980
L4390 73030
L4310 73060
L4190 73060
" />
</g>
<g style="fill:#000000; fill-opacity:0.0; 
stroke:#000000; stroke-width:100; stroke-opacity:1; 
stroke-linecap:round; stroke-linejoin:round;">
</g>
<g style="fill:#000000; fill-opacity:0.0; 
stroke:#000000; stroke-width:60; stroke-opacity:1; 
stroke-linecap:round; stroke-linejoin:round;">
<path d="M112990 23620
L112210 23620
" />
</g>
<g style="fill:#000000; fill-opacity:0.0; 
stroke:#000000; stroke-width:100; stroke-opacity:1; 
stroke-linecap:round; stroke-linejoin:round;">
</g>
<g style="fill:#000000; fill-opacity:0.0; 
stroke:#000000; stroke-width:60; stroke-opacity:1; 
stroke-linecap:round; stroke-linejoin:round;">
<path d="M112990 43310
L112210 43310
" />
</g>
<g style="fill:#000000; fill-opacity:0.0; 
stroke:#000000; stroke-width:100; stroke-opacity:1; 
stroke-linecap:round; stroke-linejoin:round;">
</g>
<g style="fill:#000000; fill-opacity:0.0; 
stroke:#000000; stroke-width:60; stroke-opacity:1; 
stroke-linecap:round; stroke-linejoin:round;">
<path d="M112990 62990
L112210 62990
" />
</g>
<g style="fill:#000000; fill-opacity:0.0; 
stroke:#000000; stroke-width:100; stroke-opacity:1; 
stroke-linecap:round; stroke-linejoin:round;">
</g>
<g style="fill:#000000; fill-opacity:0.0; 
stroke:#000000; stroke-width:60; stroke-opacity:1; 
stroke-linecap:round; stroke-linejoin:round;">
<text x="112600" y="14030"
textLength="500" font-size="680" lengthAdjust="spacingAndGlyphs"
text-anchor="middle" opacity="0">A</text>
<path d="M112470 13860
L112720 13860
" />
<path d="M112430 14010
L112600 13500
L112770 14010
" />
</g>
<g style="fill:#000000; fill-opacity:0.0; 
stroke:#000000; stroke-width:100; stroke-opacity:1; 
stroke-linecap:round; stroke-linejoin:round;">
</g>
<g style="fill:#000000; fill-opacity:0.0; 
stroke:#000000; stroke-width:60; stroke-opacity:1; 
stroke-linecap:round; stroke-linejoin:round;">
<text x="112600" y="33710"
textLength="570" font-size="680" lengthAdjust="spacingAndGlyphs"
text-anchor="middle" opacity="0">B</text>
<path d="M112630 33420
L112700 33440
L112730 33470
L112750 33520
L112750 33590
L112730 33640
L112700 33660
L112660 33690
L112460 33690
L112460 33180
L112630 33180
L112680 33200
L112700 33220
L112730 33270
L112730 33320
L112700 33370
L112680 33390
L112630 33420
L112460 33420
" />
</g>
<g style="fill:#000000; fill-opacity:0.0; 
stroke:#000000; stroke-width:100; stroke-opacity:1; 
stroke-linecap:round; stroke-linejoin:round;">
</g>
<g style="fill:#000000; fill-opacity:0.0; 
stroke:#000000; stroke-width:60; stroke-opacity:1; 
stroke-linecap:round; stroke-linejoin:round;">
<text x="112600" y="53400"
textLength="570" font-size="680" lengthAdjust="spacingAndGlyphs"
text-anchor="middle" opacity="0">C</text>
<path d="M112750 53330
L112730 53350
L112660 53380
L112610 53380
L112530 53350
L112490 53300
L112460 53250
L112440 53160
L112440 53080
L112460 52990
L112490 52940
L112530 52890
L112610 52870
L112660 52870
L112730 52890
L112750 52910
" />
</g>
<g style="fill:#000000; fill-opacity:0.0; 
stroke:#000000; stroke-width:100; stroke-opacity:1; 
stroke-linecap:round; stroke-linejoin:round;">
</g>
<g style="fill:#000000; fill-opacity:0.0; 
stroke:#000000; stroke-width:60; stroke-opacity:1; 
stroke-linecap:round; stroke-linejoin:round;">
<text x="112600" y="73080"
textLength="570" font-size="680" lengthAdjust="spacingAndGlyphs"
text-anchor="middle" opacity="0">D</text>
<path d="M112460 73060
L112460 72550
L112580 72550
L112660 72570
L112700 72620
L112730 72670
L112750 72760
L112750 72840
L112730 72930
L112700 72980
L112660 73030
L112580 73060
L112460 73060
" />
</g>
<g style="fill:#000000; fill-opacity:0.0; 
stroke:#000000; stroke-width:100; stroke-opacity:1; 
stroke-linecap:round; stroke-linejoin:round;">
</g>
<g style="fill:#000000; fill-opacity:0.0; 
stroke:#000000; stroke-width:60; stroke-opacity:1; 
stroke-linecap:round; stroke-linejoin:round;">
<text x="78740" y="76320"
textLength="2760" font-size="780" lengthAdjust="spacingAndGlyphs"
text-anchor="start" opacity="0">Date: </text>
<path d="M78910 76290
L78910 75700
L79050 75700
L79130 75730
L79190 75790
L79210 75840
L79240 75950
L79240 76040
L79210 76150
L79190 76210
L79130 76260
L79050 76290
L78910 76290
" />
<path d="M79750 76290
L79750 75980
L79720 75930
L79660 75900
L79550 75900
L79500 75930
" />
<path d="M79750 76260
L79690 76290
L79550 76290
L79500 76260
L79470 76210
L79470 76150
L79500 76100
L79550 76070
L79690 76070
L79750 76040
" />
<path d="M79950 75900
L80170 75900
" />
<path d="M80030 75700
L80030 76210
L80060 76260
L80110 76290
L80170 76290
" />
<path d="M80590 76260
L80540 76290
L80420 76290
L80370 76260
L80340 76210
L80340 75980
L80370 75930
L80420 75900
L80540 75900
L80590 75930
L80620 75980
L80620 76040
L80340 76100
" />
<path d="M80870 76240
L80900 76260
L80870 76290
L80840 76260
L80870 76240
L80870 76290
" />
<path d="M80870 75930
L80900 75950
L80870 75980
L80840 75950
L80870 75930
L80870 75980
" />
</g>
<g style="fill:#000000; fill-opacity:0.0; 
stroke:#000000; stroke-width:100; stroke-opacity:1; 
stroke-linecap:round; stroke-linejoin:round;">
</g>
<g style="fill:#000000; fill-opacity:0.0; 
stroke:#000000; stroke-width:60; stroke-opacity:1; 
stroke-linecap:round; stroke-linejoin:round;">
<path d="M69690 76580
L112210 76580
" />
</g>
<g style="fill:#000000; fill-opacity:0.0; 
stroke:#000000; stroke-width:100; stroke-opacity:1; 
stroke-linecap:round; stroke-linejoin:round;">
</g>
<g style="fill:#000000; fill-opacity:0.0; 
stroke:#000000; stroke-width:60; stroke-opacity:1; 
stroke-linecap:round; stroke-linejoin:round;">
<text x="70080" y="77420"
textLength="15910" font-size="780" lengthAdjust="spacingAndGlyphs"
text-anchor="start" opacity="0">KiCad E.D.A.  kicad 5.1.6+dfsg1-1</text>
<path d="M70250 77390
L70250 76800
" />
<path d="M70580 77390
L70330 77050
" />
<path d="M70580 76800
L70250 77140
" />
<path d="M70840 77390
L70840 77000
" />
<path d="M70840 76800
L70810 76830
L70840 76860
L70860 76830
L70840 76800
L70840 76860
" />
<path d="M71450 77340
L71430 77360
L71340 77390
L71290 77390
L71200 77360
L71140 77310
L71120 77250
L71090 77140
L71090 77050
L71120 76940
L71140 76890
L71200 76830
L71290 76800
L71340 76800
L71430 76830
L71450 76860
" />
<path d="M71960 77390
L71960 77080
L71930 77030
L71880 77000
L71760 77000
L71710 77030
" />
<path d="M71960 77360
L71900 77390
L71760 77390
L71710 77360
L71680 77310
L71680 77250
L71710 77200
L71760 77170
L71900 77170
L71960 77140
" />
<path d="M72490 77390
L72490 76800
" />
<path d="M72490 77360
L72440 77390
L72320 77390
L72270 77360
L72240 77340
L72210 77280
L72210 77110
L72240 77050
L72270 77030
L72320 77000
L72440 77000
L72490 77030
" />
<path d="M73220 77080
L73420 77080
" />
<path d="M73500 77390
L73220 77390
L73220 76800
L73500 76800
" />
<path d="M73760 77340
L73790 77360
L73760 77390
L73730 77360
L73760 77340
L73760 77390
" />
<path d="M74040 77390
L74040 76800
L74180 76800
L74260 76830
L74320 76890
L74350 76940
L74380 77050
L74380 77140
L74350 77250
L74320 77310
L74260 77360
L74180 77390
L74040 77390
" />
<path d="M74630 77340
L74660 77360
L74630 77390
L74600 77360
L74630 77340
L74630 77390
" />
<path d="M74880 77220
L75160 77220
" />
<path d="M74830 77390
L75020 76800
L75220 77390
" />
<path d="M75420 77340
L75440 77360
L75420 77390
L75390 77360
L75420 77340
L75420 77390
" />
<path d="M76600 77390
L76600 76800
" />
<path d="M76650 77170
L76820 77390
" />
<path d="M76820 77000
L76600 77220
" />
<path d="M77070 77390
L77070 77000
" />
<path d="M77070 76800
L77040 76830
L77070 76860
L77100 76830
L77070 76800
L77070 76860
" />
<path d="M77610 77360
L77550 77390
L77440 77390
L77380 77360
L77350 77340
L77330 77280
L77330 77110
L77350 77050
L77380 77030
L77440 77000
L77550 77000
L77610 77030
" />
<path d="M78110 77390
L78110 77080
L78080 77030
L78030 77000
L77920 77000
L77860 77030
" />
<path d="M78110 77360
L78060 77390
L77920 77390
L77860 77360
L77830 77310
L77830 77250
L77860 77200
L77920 77170
L78060 77170
L78110 77140
" />
<path d="M78650 77390
L78650 76800
" />
<path d="M78650 77360
L78590 77390
L78480 77390
L78420 77360
L78390 77340
L78370 77280
L78370 77110
L78390 77050
L78420 77030
L78480 77000
L78590 77000
L78650 77030
" />
<path d="M79660 76800
L79380 76800
L79350 77080
L79380 77050
L79430 77030
L79570 77030
L79630 77050
L79660 77080
L79690 77140
L79690 77280
L79660 77340
L79630 77360
L79570 77390
L79430 77390
L79380 77360
L79350 77340
" />
<path d="M79940 77340
L79970 77360
L79940 77390
L79910 77360
L79940 77340
L79940 77390
" />
<path d="M80530 77390
L80190 77390
" />
<path d="M80360 77390
L80360 76800
L80300 76890
L80250 76940
L80190 76970
" />
<path d="M80780 77340
L80810 77360
L80780 77390
L80750 77360
L80780 77340
L80780 77390
" />
<path d="M81320 76800
L81200 76800
L81150 76830
L81120 76860
L81060 76940
L81030 77050
L81030 77280
L81060 77340
L81090 77360
L81150 77390
L81260 77390
L81320 77360
L81340 77340
L81370 77280
L81370 77140
L81340 77080
L81320 77050
L81260 77030
L81150 77030
L81090 77050
L81060 77080
L81030 77140
" />
<path d="M81620 77170
L82070 77170
" />
<path d="M81850 77390
L81850 76940
" />
<path d="M82610 77390
L82610 76800
" />
<path d="M82610 77360
L82550 77390
L82440 77390
L82380 77360
L82350 77340
L82330 77280
L82330 77110
L82350 77050
L82380 77030
L82440 77000
L82550 77000
L82610 77030
" />
<path d="M82800 77000
L83030 77000
" />
<path d="M82890 77390
L82890 76890
L82920 76830
L82970 76800
L83030 76800
" />
<path d="M83200 77360
L83250 77390
L83370 77390
L83420 77360
L83450 77310
L83450 77280
L83420 77220
L83370 77200
L83280 77200
L83230 77170
L83200 77110
L83200 77080
L83230 77030
L83280 77000
L83370 77000
L83420 77030
" />
<path d="M83960 77000
L83960 77480
L83930 77530
L83900 77560
L83840 77590
L83760 77590
L83700 77560
" />
<path d="M83960 77360
L83900 77390
L83790 77390
L83730 77360
L83700 77340
L83680 77280
L83680 77110
L83700 77050
L83730 77030
L83790 77000
L83900 77000
L83960 77030
" />
<path d="M84550 77390
L84210 77390
" />
<path d="M84380 77390
L84380 76800
L84320 76890
L84270 76940
L84210 76970
" />
<path d="M84800 77170
L85250 77170
" />
<path d="M85840 77390
L85500 77390
" />
<path d="M85670 77390
L85670 76800
L85610 76890
L85560 76940
L85500 76970
" />
</g>
<g style="fill:#000000; fill-opacity:0.0; 
stroke:#000000; stroke-width:100; stroke-opacity:1; 
stroke-linecap:round; stroke-linejoin:round;">
</g>
<g style="fill:#000000; fill-opacity:0.0; 
stroke:#000000; stroke-width:60; stroke-opacity:1; 
stroke-linecap:round; stroke-linejoin:round;">
<path d="M69690 75400
L112210 75400
" />
</g>
<g style="fill:#000000; fill-opacity:0.0; 
stroke:#000000; stroke-width:100; stroke-opacity:1; 
stroke-linecap:round; stroke-linejoin:round;">
</g>
<g style="fill:#000000; fill-opacity:0.0; 
stroke:#000000; stroke-width:120; stroke-opacity:1; 
stroke-linecap:round; stroke-linejoin:round;">
<text x="103540" y="76320"
textLength="2340" font-size="780" lengthAdjust="spacingAndGlyphs"
text-anchor="start" opacity="0">Rev: </text>
<path d="M104090 76290
L103890 76010
" />
<path d="M103750 76290
L103750 75700
L103980 75700
L104030 75730
L104060 75760
L104090 75810
L104090 75900
L104060 75950
L104030 75980
L103980 76010
L103750 76010
" />
<path d="M104570 76260
L104510 76290
L104400 76290
L104340 76260
L104320 76210
L104320 75980
L104340 75930
L104400 75900
L104510 75900
L104570 75930
L104600 75980
L104600 76040
L104320 76100
" />
<path d="M104790 75900
L104930 76290
L105070 75900
" />
<path d="M105300 76240
L105330 76260
L105300 76290
L105270 76260
L105300 76240
L105300 76290
" />
<path d="M105300 75930
L105330 75950
L105300 75980
L105270 75950
L105300 75930
L105300 75980
" />
</g>
<g style="fill:#000000; fill-opacity:0.0; 
stroke:#000000; stroke-width:100; stroke-opacity:1; 
stroke-linecap:round; stroke-linejoin:round;">
</g>
<g style="fill:#000000; fill-opacity:0.0; 
stroke:#000000; stroke-width:60; stroke-opacity:1; 
stroke-linecap:round; stroke-linejoin:round;">
<text x="70080" y="76320"
textLength="3780" font-size="780" lengthAdjust="spacingAndGlyphs"
text-anchor="start" opacity="0">Size: A4</text>
<path d="M70220 76260
L70300 76290
L70440 76290
L70500 76260
L70530 76240
L70550 76180
L70550 76120
L70530 76070
L70500 76040
L70440 76010
L70330 75980
L70270 75950
L70250 75930
L70220 75870
L70220 75810
L70250 75760
L70270 75730
L70330 75700
L70470 75700
L70550 75730
" />
<path d="M70810 76290
L70810 75900
" />
<path d="M70810 75700
L70780 75730
L70810 75760
L70840 75730
L70810 75700
L70810 75760
" />
<path d="M71030 75900
L71340 75900
L71030 76290
L71340 76290
" />
<path d="M71790 76260
L71730 76290
L71620 76290
L71570 76260
L71540 76210
L71540 75980
L71570 75930
L71620 75900
L71730 75900
L71790 75930
L71820 75980
L71820 76040
L71540 76100
" />
<path d="M72070 76240
L72100 76260
L72070 76290
L72040 76260
L72070 76240
L72070 76290
" />
<path d="M72070 75930
L72100 75950
L72070 75980
L72040 75950
L72070 75930
L72070 75980
" />
<path d="M72770 76120
L73060 76120
" />
<path d="M72720 76290
L72910 75700
L73110 76290
" />
<path d="M73560 75900
L73560 76290
" />
<path d="M73420 75670
L73280 76100
L73650 76100
" />
</g>
<g style="fill:#000000; fill-opacity:0.0; 
stroke:#000000; stroke-width:100; stroke-opacity:1; 
stroke-linecap:round; stroke-linejoin:round;">
</g>
<g style="fill:#000000; fill-opacity:0.0; 
stroke:#000000; stroke-width:60; stroke-opacity:1; 
stroke-linecap:round; stroke-linejoin:round;">
<text x="103540" y="77420"
textLength="3350" font-size="780" lengthAdjust="spacingAndGlyphs"
text-anchor="start" opacity="0">Id: 1/1</text>
<path d="M103710 77390
L103710 76800
" />
<path d="M104240 77390
L104240 76800
" />
<path d="M104240 77360
L104180 77390
L104070 77390
L104010 77360
L103990 77340
L103960 77280
L103960 77110
L103990 77050
L104010 77030
L104070 77000
L104180 77000
L104240 77030
" />
<path d="M104520 77340
L104550 77360
L104520 77390
L104490 77360
L104520 77340
L104520 77390
" />
<path d="M104520 77030
L104550 77050
L104520 77080
L104490 77050
L104520 77030
L104520 77080
" />
<path d="M105560 77390
L105220 77390
" />
<path d="M105390 77390
L105390 76800
L105340 76890
L105280 76940
L105220 76970
" />
<path d="M106230 76770
L105730 77530
" />
<path d="M106740 77390
L106400 77390
" />
<path d="M106570 77390
L106570 76800
L106520 76890
L106460 76940
L106400 76970
" />
</g>
<g style="fill:#000000; fill-opacity:0.0; 
stroke:#000000; stroke-width:100; stroke-opacity:1; 
stroke-linecap:round; stroke-linejoin:round;">
</g>
<g style="fill:#000000; fill-opacity:0.0; 
stroke:#000000; stroke-width:60; stroke-opacity:1; 
stroke-linecap:round; stroke-linejoin:round;">
<path d="M69690 73820
L112210 73820
" />
</g>
<g style="fill:#000000; fill-opacity:0.0; 
stroke:#000000; stroke-width:100; stroke-opacity:1; 
stroke-linecap:round; stroke-linejoin:round;">
</g>
<g style="fill:#000000; fill-opacity:0.0; 
stroke:#000000; stroke-width:160; stroke-opacity:1; 
stroke-linecap:round; stroke-linejoin:round;">
<text x="70080" y="74920"
textLength="3710" font-size="1050" lengthAdjust="spacingAndGlyphs"
text-anchor="start" opacity="0">Title: </text>
<path d="M70360 74090
L70810 74090
" />
<path d="M70480 74880
L70580 74090
" />
<path d="M70970 74880
L71040 74360
" />
<path d="M71070 74090
L71030 74130
L71060 74170
L71110 74130
L71070 74090
L71060 74170
" />
<path d="M71300 74360
L71600 74360
" />
<path d="M71450 74090
L71360 74770
L71390 74840
L71460 74880
L71540 74880
" />
<path d="M71910 74880
L71840 74840
L71820 74770
L71900 74090
" />
<path d="M72520 74840
L72440 74880
L72290 74880
L72220 74840
L72190 74770
L72230 74470
L72280 74390
L72360 74360
L72510 74360
L72580 74390
L72610 74470
L72600 74540
L72210 74620
" />
<path d="M72900 74810
L72930 74840
L72890 74880
L72860 74840
L72900 74810
L72890 74880
" />
<path d="M72950 74390
L72990 74430
L72940 74470
L72910 74430
L72950 74390
L72940 74470
" />
</g>
<g style="fill:#000000; fill-opacity:0.0; 
stroke:#000000; stroke-width:100; stroke-opacity:1; 
stroke-linecap:round; stroke-linejoin:round;">
</g>
<g style="fill:#000000; fill-opacity:0.0; 
stroke:#000000; stroke-width:60; stroke-opacity:1; 
stroke-linecap:round; stroke-linejoin:round;">
<text x="70080" y="73400"
textLength="14510" font-size="780" lengthAdjust="spacingAndGlyphs"
text-anchor="start" opacity="0">File: Phone_ext_Mic_adapter.sch</text>
<path d="M70440 73060
L70250 73060
" />
<path d="M70250 73370
L70250 72780
L70530 72780
" />
<path d="M70750 73370
L70750 72980
" />
<path d="M70750 72780
L70720 72810
L70750 72840
L70780 72810
L70750 72780
L70750 72840
" />
<path d="M71120 73370
L71060 73340
L71030 73290
L71030 72780
" />
<path d="M71570 73340
L71510 73370
L71400 73370
L71340 73340
L71310 73290
L71310 73060
L71340 73010
L71400 72980
L71510 72980
L71570 73010
L71590 73060
L71590 73120
L71310 73180
" />
<path d="M71850 73320
L71880 73340
L71850 73370
L71820 73340
L71850 73320
L71850 73370
" />
<path d="M71850 73010
L71880 73030
L71850 73060
L71820 73030
L71850 73010
L71850 73060
" />
<path d="M72580 73370
L72580 72780
L72800 72780
L72860 72810
L72890 72840
L72910 72890
L72910 72980
L72890 73030
L72860 73060
L72800 73090
L72580 73090
" />
<path d="M73170 73370
L73170 72780
" />
<path d="M73420 73370
L73420 73060
L73390 73010
L73340 72980
L73250 72980
L73200 73010
L73170 73030
" />
<path d="M73790 73370
L73730 73340
L73700 73320
L73670 73260
L73670 73090
L73700 73030
L73730 73010
L73790 72980
L73870 72980
L73930 73010
L73950 73030
L73980 73090
L73980 73260
L73950 73320
L73930 73340
L73870 73370
L73790 73370
" />
<path d="M74240 72980
L74240 73370
" />
<path d="M74240 73030
L74260 73010
L74320 72980
L74400 72980
L74460 73010
L74490 73060
L74490 73370
" />
<path d="M74990 73340
L74940 73370
L74830 73370
L74770 73340
L74740 73290
L74740 73060
L74770 73010
L74830 72980
L74940 72980
L74990 73010
L75020 73060
L75020 73120
L74740 73180
" />
<path d="M75130 73430
L75580 73430
" />
<path d="M75950 73340
L75890 73370
L75780 73370
L75720 73340
L75700 73290
L75700 73060
L75720 73010
L75780 72980
L75890 72980
L75950 73010
L75980 73060
L75980 73120
L75700 73180
" />
<path d="M76170 73370
L76480 72980
" />
<path d="M76170 72980
L76480 73370
" />
<path d="M76620 72980
L76850 72980
" />
<path d="M76710 72780
L76710 73290
L76740 73340
L76790 73370
L76850 73370
" />
<path d="M76900 73430
L77350 73430
" />
<path d="M77490 73370
L77490 72780
L77690 73200
L77890 72780
L77890 73370
" />
<path d="M78170 73370
L78170 72980
" />
<path d="M78170 72780
L78140 72810
L78170 72840
L78200 72810
L78170 72780
L78170 72840
" />
<path d="M78700 73340
L78650 73370
L78530 73370
L78480 73340
L78450 73320
L78420 73260
L78420 73090
L78450 73030
L78480 73010
L78530 72980
L78650 72980
L78700 73010
" />
<path d="M78810 73430
L79260 73430
" />
<path d="M79660 73370
L79660 73060
L79630 73010
L79570 72980
L79460 72980
L79400 73010
" />
<path d="M79660 73340
L79600 73370
L79460 73370
L79400 73340
L79380 73290
L79380 73230
L79400 73180
L79460 73150
L79600 73150
L79660 73120
" />
<path d="M80190 73370
L80190 72780
" />
<path d="M80190 73340
L80140 73370
L80020 73370
L79970 73340
L79940 73320
L79910 73260
L79910 73090
L79940 73030
L79970 73010
L80020 72980
L80140 72980
L80190 73010
" />
<path d="M80730 73370
L80730 73060
L80700 73010
L80640 72980
L80530 72980
L80470 73010
" />
<path d="M80730 73340
L80670 73370
L80530 73370
L80470 73340
L80440 73290
L80440 73230
L80470 73180
L80530 73150
L80670 73150
L80730 73120
" />
<path d="M81010 72980
L81010 73570
" />
<path d="M81010 73010
L81060 72980
L81170 72980
L81230 73010
L81260 73030
L81290 73090
L81290 73260
L81260 73320
L81230 73340
L81170 73370
L81060 73370
L81010 73340
" />
<path d="M81460 72980
L81680 72980
" />
<path d="M81540 72780
L81540 73290
L81570 73340
L81620 73370
L81680 73370
" />
<path d="M82100 73340
L82050 73370
L81930 73370
L81880 73340
L81850 73290
L81850 73060
L81880 73010
L81930 72980
L82050 72980
L82100 73010
L82130 73060
L82130 73120
L81850 73180
" />
<path d="M82380 73370
L82380 72980
" />
<path d="M82380 73090
L82410 73030
L82440 73010
L82500 72980
L82550 72980
" />
<path d="M82750 73320
L82780 73340
L82750 73370
L82720 73340
L82750 73320
L82750 73370
" />
<path d="M83000 73340
L83060 73370
L83170 73370
L83230 73340
L83250 73290
L83250 73260
L83230 73200
L83170 73180
L83090 73180
L83030 73150
L83000 73090
L83000 73060
L83030 73010
L83090 72980
L83170 72980
L83230 73010
" />
<path d="M83760 73340
L83700 73370
L83590 73370
L83530 73340
L83510 73320
L83480 73260
L83480 73090
L83510 73030
L83530 73010
L83590 72980
L83700 72980
L83760 73010
" />
<path d="M84010 73370
L84010 72780
" />
<path d="M84270 73370
L84270 73060
L84240 73010
L84180 72980
L84100 72980
L84040 73010
L84010 73030
" />
</g>
<g style="fill:#000000; fill-opacity:0.0; 
stroke:#000000; stroke-width:100; stroke-opacity:1; 
stroke-linecap:round; stroke-linejoin:round;">
</g>
<g style="fill:#000000; fill-opacity:0.0; 
stroke:#000000; stroke-width:60; stroke-opacity:1; 
stroke-linecap:round; stroke-linejoin:round;">
<path d="M69690 71460
L112210 71460
" />
</g>
<g style="fill:#000000; fill-opacity:0.0; 
stroke:#000000; stroke-width:100; stroke-opacity:1; 
stroke-linecap:round; stroke-linejoin:round;">
</g>
<g style="fill:#000000; fill-opacity:0.0; 
stroke:#000000; stroke-width:60; stroke-opacity:1; 
stroke-linecap:round; stroke-linejoin:round;">
<text x="70080" y="72340"
textLength="3850" font-size="780" lengthAdjust="spacingAndGlyphs"
text-anchor="start" opacity="0">Sheet: /</text>
<path d="M70220 72280
L70300 72310
L70440 72310
L70500 72280
L70530 72260
L70550 72200
L70550 72140
L70530 72090
L70500 72060
L70440 72030
L70330 72000
L70270 71970
L70250 71950
L70220 71890
L70220 71830
L70250 71780
L70270 71750
L70330 71720
L70470 71720
L70550 71750
" />
<path d="M70810 72310
L70810 71720
" />
<path d="M71060 72310
L71060 72000
L71030 71950
L70980 71920
L70890 71920
L70840 71950
L70810 71970
" />
<path d="M71570 72280
L71510 72310
L71400 72310
L71340 72280
L71310 72230
L71310 72000
L71340 71950
L71400 71920
L71510 71920
L71570 71950
L71590 72000
L71590 72060
L71310 72120
" />
<path d="M72070 72280
L72020 72310
L71900 72310
L71850 72280
L71820 72230
L71820 72000
L71850 71950
L71900 71920
L72020 71920
L72070 71950
L72100 72000
L72100 72060
L71820 72120
" />
<path d="M72270 71920
L72490 71920
" />
<path d="M72350 71720
L72350 72230
L72380 72280
L72440 72310
L72490 72310
" />
<path d="M72690 72260
L72720 72280
L72690 72310
L72660 72280
L72690 72260
L72690 72310
" />
<path d="M72690 71950
L72720 71970
L72690 72000
L72660 71970
L72690 71950
L72690 72000
" />
<path d="M73840 71690
L73340 72450
" />
</g>
<g style="fill:#000000; fill-opacity:0.0; 
stroke:#000000; stroke-width:100; stroke-opacity:1; 
stroke-linecap:round; stroke-linejoin:round;">
</g>
<g style="fill:#000000; fill-opacity:0.0; 
stroke:#000000; stroke-width:60; stroke-opacity:1; 
stroke-linecap:round; stroke-linejoin:round;">
<path d="M77560 75400
L77560 76580
" />
</g>
<g style="fill:#000000; fill-opacity:0.0; 
stroke:#000000; stroke-width:100; stroke-opacity:1; 
stroke-linecap:round; stroke-linejoin:round;">
</g>
<g style="fill:#000000; fill-opacity:0.0; 
stroke:#000000; stroke-width:60; stroke-opacity:1; 
stroke-linecap:round; stroke-linejoin:round;">
<path d="M102760 75400
L102760 77960
" />
</g>
<g style="fill:#000000; fill-opacity:0.0; 
stroke:#000000; stroke-width:0; stroke-opacity:1; 
stroke-linecap:round; stroke-linejoin:round;">
<g >
</g>
<g style="fill:#000000; fill-opacity:0.0; 
stroke:#000000; stroke-width:100; stroke-opacity:1; 
stroke-linecap:round; stroke-linejoin:round;">
<rect x="56000" y="36500" width="5000" height="3000" rx="0" />
<rect x="54500" y="36000" width="1500" height="4000" rx="0" />
<path style="fill:#000000; fill-opacity:0.0; 
stroke:#000000; stroke-width:100; stroke-opacity:1; 
stroke-linecap:round; stroke-linejoin:round;fill:none"
d="M 61000,36500
61500,36500
62000,37000
63500,36500
64500,37500
64500,38500
63500,39500
62000,39000
61500,39500
61000,39500
Z" /> 
</g>
<g style="fill:#000000; fill-opacity:0.0; 
stroke:#000000; stroke-width:80; stroke-opacity:1; 
stroke-linecap:round; stroke-linejoin:round;">
<text x="58000" y="38270"
textLength="540" font-size="660" lengthAdjust="spacingAndGlyphs"
text-anchor="middle" opacity="0">S</text>
<path d="M57850 38220
L57920 38240
L58040 38240
L58090 38220
L58110 38190
L58140 38150
L58140 38100
L58110 38050
L58090 38030
L58040 38000
L57950 37980
L57900 37960
L57880 37930
L57850 37880
L57850 37840
L57880 37790
L57900 37770
L57950 37740
L58070 37740
L58140 37770
" />
<text x="63000" y="38270"
textLength="460" font-size="660" lengthAdjust="spacingAndGlyphs"
text-anchor="middle" opacity="0">T</text>
<path d="M62850 37740
L63140 37740
" />
<path d="M63000 38240
L63000 37740
" />
</g>
<g style="fill:#000000; fill-opacity:0.0; 
stroke:#000000; stroke-width:100; stroke-opacity:1; 
stroke-linecap:round; stroke-linejoin:round;">
<rect x="56000" y="36500" width="5000" height="3000" rx="0" />
<rect x="54500" y="36000" width="1500" height="4000" rx="0" />
<path style="fill:#000000; fill-opacity:0.0; 
stroke:#000000; stroke-width:100; stroke-opacity:1; 
stroke-linecap:round; stroke-linejoin:round;fill:none"
d="M 61000,36500
61500,36500
62000,37000
63500,36500
64500,37500
64500,38500
63500,39500
62000,39000
61500,39500
61000,39500
Z" /> 
</g>
<g style="fill:#000000; fill-opacity:0.0; 
stroke:#000000; stroke-width:80; stroke-opacity:1; 
stroke-linecap:round; stroke-linejoin:round;">
<path d="M54500 37000
L53500 37000
" />
<text x="54000" y="36880"
textLength="560" font-size="660" lengthAdjust="spacingAndGlyphs"
text-anchor="middle" opacity="0">S</text>
<path d="M53850 36830
L53920 36850
L54040 36850
L54090 36830
L54110 36800
L54140 36760
L54140 36710
L54110 36660
L54090 36640
L54040 36610
L53950 36590
L53900 36570
L53880 36540
L53850 36490
L53850 36450
L53880 36400
L53900 36380
L53950 36350
L54070 36350
L54140 36380
" />
<path d="M54500 39000
L53500 39000
" />
<text x="54000" y="38880"
textLength="460" font-size="660" lengthAdjust="spacingAndGlyphs"
text-anchor="middle" opacity="0">T</text>
<path d="M53850 38350
L54140 38350
" />
<path d="M54000 38850
L54000 38350
" />
<text x="65230" y="37810"
textLength="890" font-size="660" lengthAdjust="spacingAndGlyphs"
text-anchor="middle" opacity="0">J?</text>
<path d="M65080 37280
L65080 37640
L65060 37710
L65010 37760
L64940 37780
L64890 37780
" />
<path d="M65390 37730
L65420 37760
L65390 37780
L65370 37760
L65390 37730
L65390 37780
" />
<path d="M65300 37310
L65340 37280
L65460 37280
L65510 37310
L65530 37350
L65530 37400
L65510 37450
L65490 37470
L65440 37500
L65420 37520
L65390 37570
L65390 37590
" />
<text x="58850" y="40780"
textLength="8700" font-size="660" lengthAdjust="spacingAndGlyphs"
text-anchor="middle" opacity="0">Microphone / Audio In</text>
<path d="M54650 40750
L54650 40250
L54820 40610
L54990 40250
L54990 40750
" />
<path d="M55230 40750
L55230 40420
" />
<path d="M55230 40250
L55200 40280
L55230 40300
L55250 40280
L55230 40250
L55230 40300
" />
<path d="M55680 40730
L55630 40750
L55540 40750
L55490 40730
L55460 40700
L55440 40660
L55440 40510
L55460 40470
L55490 40440
L55540 40420
L55630 40420
L55680 40440
" />
<path d="M55890 40750
L55890 40420
" />
<path d="M55890 40510
L55920 40470
L55940 40440
L55990 40420
L56040 40420
" />
<path d="M56270 40750
L56230 40730
L56200 40700
L56180 40660
L56180 40510
L56200 40470
L56230 40440
L56270 40420
L56350 40420
L56390 40440
L56420 40470
L56440 40510
L56440 40660
L56420 40700
L56390 40730
L56350 40750
L56270 40750
" />
<path d="M56650 40420
L56650 40920
" />
<path d="M56650 40440
L56700 40420
L56800 40420
L56850 40440
L56870 40470
L56890 40510
L56890 40660
L56870 40700
L56850 40730
L56800 40750
L56700 40750
L56650 40730
" />
<path d="M57110 40750
L57110 40250
" />
<path d="M57320 40750
L57320 40490
L57300 40440
L57250 40420
L57180 40420
L57130 40440
L57110 40470
" />
<path d="M57630 40750
L57580 40730
L57560 40700
L57540 40660
L57540 40510
L57560 40470
L57580 40440
L57630 40420
L57700 40420
L57750 40440
L57770 40470
L57800 40510
L57800 40660
L57770 40700
L57750 40730
L57700 40750
L57630 40750
" />
<path d="M58010 40420
L58010 40750
" />
<path d="M58010 40470
L58040 40440
L58080 40420
L58150 40420
L58200 40440
L58230 40490
L58230 40750
" />
<path d="M58650 40730
L58610 40750
L58510 40750
L58460 40730
L58440 40680
L58440 40490
L58460 40440
L58510 40420
L58610 40420
L58650 40440
L58680 40490
L58680 40540
L58440 40580
" />
<path d="M59630 40230
L59200 40870
" />
<path d="M60150 40610
L60390 40610
" />
<path d="M60110 40750
L60270 40250
L60440 40750
" />
<path d="M60820 40420
L60820 40750
" />
<path d="M60610 40420
L60610 40680
L60630 40730
L60680 40750
L60750 40750
L60800 40730
L60820 40700
" />
<path d="M61270 40750
L61270 40250
" />
<path d="M61270 40730
L61230 40750
L61130 40750
L61080 40730
L61060 40700
L61040 40660
L61040 40510
L61060 40470
L61080 40440
L61130 40420
L61230 40420
L61270 40440
" />
<path d="M61510 40750
L61510 40420
" />
<path d="M61510 40250
L61490 40280
L61510 40300
L61540 40280
L61510 40250
L61510 40300
" />
<path d="M61820 40750
L61770 40730
L61750 40700
L61730 40660
L61730 40510
L61750 40470
L61770 40440
L61820 40420
L61890 40420
L61940 40440
L61960 40470
L61990 40510
L61990 40660
L61960 40700
L61940 40730
L61890 40750
L61820 40750
" />
<path d="M62580 40750
L62580 40250
" />
<path d="M62820 40420
L62820 40750
" />
<path d="M62820 40470
L62850 40440
L62890 40420
L62960 40420
L63010 40440
L63040 40490
L63040 40750
" />
</g>
</g>
<g style="fill:#000000; fill-opacity:0.0; 
stroke:#000000; stroke-width:0; stroke-opacity:1; 
stroke-linecap:round; stroke-linejoin:round;">
<g >
</g>
<g style="fill:#000000; fill-opacity:0.0; 
stroke:#000000; stroke-width:100; stroke-opacity:1; 
stroke-linecap:round; stroke-linejoin:round;">
<rect x="54500" y="30000" width="3000" height="3500" rx="0" />
</g>
<g style="fill:#000000; fill-opacity:1.0; 
stroke:#000000; stroke-width:100; stroke-opacity:1; 
stroke-linecap:round; stroke-linejoin:round;">
<rect x="57500" y="32500" width="500" height="1000" rx="0" />
</g>
<g style="fill:#000000; fill-opacity:0.0; 
stroke:#000000; stroke-width:100; stroke-opacity:1; 
stroke-linecap:round; stroke-linejoin:round;">
<rect x="54500" y="30000" width="3000" height="3500" rx="0" />
<path style="fill:#000000; fill-opacity:0.0; 
stroke:#000000; stroke-width:100; stroke-opacity:1; 
stroke-linecap:round; stroke-linejoin:round;fill:none"
d="M 55500,32500
55250,32750
55000,32500
54500,32500
" /> 
<path style="fill:#000000; fill-opacity:0.0; 
stroke:#000000; stroke-width:100; stroke-opacity:1; 
stroke-linecap:round; stroke-linejoin:round;fill:none"
d="M 56250,32500
56000,32750
55750,32500
55750,31500
54500,31500
" /> 
<path style="fill:#000000; fill-opacity:0.0; 
stroke:#000000; stroke-width:100; stroke-opacity:1; 
stroke-linecap:round; stroke-linejoin:round;fill:none"
d="M 54500,30500
56500,30500
56500,32500
56750,32750
57000,32500
" /> 
</g>
<g style="fill:#000000; fill-opacity:0.0; 
stroke:#000000; stroke-width:80; stroke-opacity:1; 
stroke-linecap:round; stroke-linejoin:round;">
<path d="M54500 31500
L53500 31500
" />
<text x="54000" y="31380"
textLength="580" font-size="660" lengthAdjust="spacingAndGlyphs"
text-anchor="middle" opacity="0">R</text>
<path d="M54150 31350
L53980 31110
" />
<path d="M53860 31350
L53860 30850
L54050 30850
L54100 30880
L54130 30900
L54150 30950
L54150 31020
L54130 31070
L54100 31090
L54050 31110
L53860 31110
" />
<path d="M54500 30500
L53500 30500
" />
<text x="54000" y="30380"
textLength="560" font-size="660" lengthAdjust="spacingAndGlyphs"
text-anchor="middle" opacity="0">S</text>
<path d="M53850 30330
L53920 30350
L54040 30350
L54090 30330
L54110 30300
L54140 30260
L54140 30210
L54110 30160
L54090 30140
L54040 30110
L53950 30090
L53900 30070
L53880 30040
L53850 29990
L53850 29950
L53880 29900
L53900 29880
L53950 29850
L54070 29850
L54140 29880
" />
<path d="M54500 32500
L53500 32500
" />
<text x="54000" y="32380"
textLength="460" font-size="660" lengthAdjust="spacingAndGlyphs"
text-anchor="middle" opacity="0">T</text>
<path d="M53850 31850
L54140 31850
" />
<path d="M54000 32350
L54000 31850
" />
<text x="58740" y="31510"
textLength="890" font-size="660" lengthAdjust="spacingAndGlyphs"
text-anchor="middle" opacity="0">J?</text>
<path d="M58590 30980
L58590 31340
L58570 31410
L58520 31460
L58450 31480
L58400 31480
" />
<path d="M58900 31430
L58930 31460
L58900 31480
L58880 31460
L58900 31430
L58900 31480
" />
<path d="M58810 31010
L58850 30980
L58970 30980
L59020 31010
L59040 31050
L59040 31100
L59020 31150
L59000 31170
L58950 31200
L58930 31220
L58900 31270
L58900 31290
" />
<text x="59060" y="29280"
textLength="9130" font-size="660" lengthAdjust="spacingAndGlyphs"
text-anchor="middle" opacity="0">Headphone / Audio Out</text>
<path d="M54650 29250
L54650 28750
" />
<path d="M54650 28990
L54940 28990
" />
<path d="M54940 29250
L54940 28750
" />
<path d="M55360 29230
L55320 29250
L55220 29250
L55170 29230
L55150 29180
L55150 28990
L55170 28940
L55220 28920
L55320 28920
L55360 28940
L55390 28990
L55390 29040
L55150 29080
" />
<path d="M55820 29250
L55820 28990
L55790 28940
L55750 28920
L55650 28920
L55600 28940
" />
<path d="M55820 29230
L55770 29250
L55650 29250
L55600 29230
L55580 29180
L55580 29130
L55600 29080
L55650 29060
L55770 29060
L55820 29040
" />
<path d="M56270 29250
L56270 28750
" />
<path d="M56270 29230
L56220 29250
L56130 29250
L56080 29230
L56060 29200
L56030 29160
L56030 29010
L56060 28970
L56080 28940
L56130 28920
L56220 28920
L56270 28940
" />
<path d="M56510 28920
L56510 29420
" />
<path d="M56510 28940
L56560 28920
L56650 28920
L56700 28940
L56720 28970
L56750 29010
L56750 29160
L56720 29200
L56700 29230
L56650 29250
L56560 29250
L56510 29230
" />
<path d="M56960 29250
L56960 28750
" />
<path d="M57170 29250
L57170 28990
L57150 28940
L57100 28920
L57030 28920
L56980 28940
L56960 28970
" />
<path d="M57480 29250
L57440 29230
L57410 29200
L57390 29160
L57390 29010
L57410 28970
L57440 28940
L57480 28920
L57560 28920
L57600 28940
L57630 28970
L57650 29010
L57650 29160
L57630 29200
L57600 29230
L57560 29250
L57480 29250
" />
<path d="M57860 28920
L57860 29250
" />
<path d="M57860 28970
L57890 28940
L57940 28920
L58010 28920
L58060 28940
L58080 28990
L58080 29250
" />
<path d="M58510 29230
L58460 29250
L58360 29250
L58320 29230
L58290 29180
L58290 28990
L58320 28940
L58360 28920
L58460 28920
L58510 28940
L58530 28990
L58530 29040
L58290 29080
" />
<path d="M59480 28730
L59060 29370
" />
<path d="M60010 29110
L60250 29110
" />
<path d="M59960 29250
L60130 28750
L60290 29250
" />
<path d="M60670 28920
L60670 29250
" />
<path d="M60460 28920
L60460 29180
L60480 29230
L60530 29250
L60600 29250
L60650 29230
L60670 29200
" />
<path d="M61130 29250
L61130 28750
" />
<path d="M61130 29230
L61080 29250
L60980 29250
L60940 29230
L60910 29200
L60890 29160
L60890 29010
L60910 28970
L60940 28940
L60980 28920
L61080 28920
L61130 28940
" />
<path d="M61360 29250
L61360 28920
" />
<path d="M61360 28750
L61340 28780
L61360 28800
L61390 28780
L61360 28750
L61360 28800
" />
<path d="M61670 29250
L61630 29230
L61600 29200
L61580 29160
L61580 29010
L61600 28970
L61630 28940
L61670 28920
L61750 28920
L61790 28940
L61820 28970
L61840 29010
L61840 29160
L61820 29200
L61790 29230
L61750 29250
L61670 29250
" />
<path d="M62530 28750
L62630 28750
L62670 28780
L62720 28820
L62750 28920
L62750 29080
L62720 29180
L62670 29230
L62630 29250
L62530 29250
L62480 29230
L62440 29180
L62410 29080
L62410 28920
L62440 28820
L62480 28780
L62530 28750
" />
<path d="M63170 28920
L63170 29250
" />
<path d="M62960 28920
L62960 29180
L62980 29230
L63030 29250
L63100 29250
L63150 29230
L63170 29200
" />
<path d="M63340 28920
L63530 28920
" />
<path d="M63410 28750
L63410 29180
L63440 29230
L63480 29250
L63530 29250
" />
</g>
</g>
<g style="fill:#000000; fill-opacity:0.0; 
stroke:#000000; stroke-width:0; stroke-opacity:1; 
stroke-linecap:round; stroke-linejoin:round;">
<g >
</g>
<g style="fill:#000000; fill-opacity:0.0; 
stroke:#000000; stroke-width:120; stroke-opacity:1; 
stroke-linecap:round; stroke-linejoin:round;">
<path d="M46401.6 35197.5 A1250 1250 0.0 0 0 47598.4 35197.5" />
<path style="fill:#000000; fill-opacity:0.0; 
stroke:#000000; stroke-width:120; stroke-opacity:1; 
stroke-linecap:round; stroke-linejoin:round;fill:none"
d="M 46400,35700
47600,35700
" /> 
</g>
<g style="fill:#000000; fill-opacity:0.0; 
stroke:#000000; stroke-width:80; stroke-opacity:1; 
stroke-linecap:round; stroke-linejoin:round;">
<path style="fill:#000000; fill-opacity:0.0; 
stroke:#000000; stroke-width:80; stroke-opacity:1; 
stroke-linecap:round; stroke-linejoin:round;fill:none"
d="M 46500,36100
46700,36100
" /> 
<path style="fill:#000000; fill-opacity:0.0; 
stroke:#000000; stroke-width:80; stroke-opacity:1; 
stroke-linecap:round; stroke-linejoin:round;fill:none"
d="M 46600,36000
46600,36200
" /> 
<path d="M47000 35700
L47000 36500
" />
<path d="M47000 35300
L47000 34500
" />
<text x="45590" y="35240"
textLength="1010" font-size="660" lengthAdjust="spacingAndGlyphs"
text-anchor="middle" opacity="0">C?</text>
<path d="M45530 35160
L45500 35190
L45430 35210
L45380 35210
L45310 35190
L45260 35140
L45240 35090
L45220 35000
L45220 34930
L45240 34830
L45260 34780
L45310 34740
L45380 34710
L45430 34710
L45500 34740
L45530 34760
" />
<path d="M45810 35160
L45840 35190
L45810 35210
L45790 35190
L45810 35160
L45810 35210
" />
<path d="M45720 34740
L45760 34710
L45880 34710
L45930 34740
L45950 34780
L45950 34830
L45930 34880
L45910 34900
L45860 34930
L45840 34950
L45810 35000
L45810 35020
" />
<text x="45200" y="36170"
textLength="1790" font-size="660" lengthAdjust="spacingAndGlyphs"
text-anchor="middle" opacity="0">3.3</text>
<path d="M44410 35640
L44720 35640
L44550 35830
L44620 35830
L44670 35860
L44700 35880
L44720 35930
L44720 36050
L44700 36090
L44670 36120
L44620 36140
L44480 36140
L44430 36120
L44410 36090
" />
<path d="M44930 36090
L44960 36120
L44930 36140
L44910 36120
L44930 36090
L44930 36140
" />
<path d="M45120 35640
L45430 35640
L45270 35830
L45340 35830
L45390 35860
L45410 35880
L45430 35930
L45430 36050
L45410 36090
L45390 36120
L45340 36140
L45200 36140
L45150 36120
L45120 36090
" />
<path d="M45650 35810
L45650 36310
" />
<path d="M45890 36070
L45910 36120
L45960 36140
" />
<path d="M45650 36070
L45670 36120
L45720 36140
L45810 36140
L45860 36120
L45890 36070
L45890 35810
" />
</g>
</g>
<g style="fill:#000000; fill-opacity:0.0; 
stroke:#000000; stroke-width:0; stroke-opacity:1; 
stroke-linecap:round; stroke-linejoin:round;">
<g >
</g>
<g style="fill:#000000; fill-opacity:0.0; 
stroke:#000000; stroke-width:100; stroke-opacity:1; 
stroke-linecap:round; stroke-linejoin:round;">
<rect x="48100" y="34000" width="800" height="2000" rx="0" />
</g>
<g style="fill:#000000; fill-opacity:0.0; 
stroke:#000000; stroke-width:80; stroke-opacity:1; 
stroke-linecap:round; stroke-linejoin:round;">
<path d="M48500 34000
L48500 33500
" />
<path d="M48500 36000
L48500 36500
" />
<text x="49700" y="34810"
textLength="1010" font-size="660" lengthAdjust="spacingAndGlyphs"
text-anchor="middle" opacity="0">R?</text>
<path d="M49640 34780
L49470 34540
" />
<path d="M49350 34780
L49350 34280
L49540 34280
L49590 34310
L49610 34330
L49640 34380
L49640 34450
L49610 34500
L49590 34520
L49540 34540
L49350 34540
" />
<path d="M49920 34730
L49950 34760
L49920 34780
L49900 34760
L49920 34730
L49920 34780
" />
<path d="M49830 34310
L49870 34280
L49990 34280
L50040 34310
L50060 34350
L50060 34400
L50040 34450
L50020 34470
L49970 34500
L49950 34520
L49920 34570
L49920 34590
" />
<text x="50040" y="35740"
textLength="1680" font-size="660" lengthAdjust="spacingAndGlyphs"
text-anchor="middle" opacity="0">2.2k</text>
<path d="M49330 35260
L49360 35240
L49400 35210
L49520 35210
L49570 35240
L49590 35260
L49620 35310
L49620 35350
L49590 35430
L49310 35710
L49620 35710
" />
<path d="M49830 35660
L49860 35690
L49830 35710
L49810 35690
L49830 35660
L49830 35710
" />
<path d="M50050 35260
L50070 35240
L50120 35210
L50240 35210
L50290 35240
L50310 35260
L50330 35310
L50330 35350
L50310 35430
L50020 35710
L50330 35710
" />
<path d="M50550 35710
L50550 35210
" />
<path d="M50590 35520
L50740 35710
" />
<path d="M50740 35380
L50550 35570
" />
</g>
</g>
<g style="fill:#000000; fill-opacity:0.0; 
stroke:#000000; stroke-width:0; stroke-opacity:1; 
stroke-linecap:round; stroke-linejoin:round;">
<g >
</g>
<g style="fill:#000000; fill-opacity:0.0; 
stroke:#000000; stroke-width:100; stroke-opacity:1; 
stroke-linecap:round; stroke-linejoin:round;">
<rect x="39500" y="30500" width="1000" height="3000" rx="0" />
<rect x="40500" y="30500" width="1000" height="3000" rx="0" />
<rect x="41500" y="30500" width="3000" height="3000" rx="0" />
<rect x="44500" y="30000" width="1500" height="4000" rx="0" />
<path style="fill:#000000; fill-opacity:0.0; 
stroke:#000000; stroke-width:100; stroke-opacity:1; 
stroke-linecap:round; stroke-linejoin:round;fill:none"
d="M 39500,33500
39000,33500
38500,33000
37000,33500
36000,32500
36000,31500
37000,30500
38500,31000
39000,30500
39500,30500
Z" /> 
</g>
<g style="fill:#000000; fill-opacity:0.0; 
stroke:#000000; stroke-width:80; stroke-opacity:1; 
stroke-linecap:round; stroke-linejoin:round;">
<g transform="rotate(-90 40010 32000)">
<text x="40010" y="32250"
textLength="1060" font-size="660" lengthAdjust="spacingAndGlyphs"
text-anchor="middle" opacity="0">R1</text>
</g>
<path d="M40230 32080
L39990 32250
" />
<path d="M40230 32360
L39730 32360
L39730 32170
L39760 32130
L39780 32100
L39830 32080
L39900 32080
L39950 32100
L39970 32130
L39990 32170
L39990 32360
" />
<path d="M40230 31600
L40230 31890
" />
<path d="M40230 31750
L39730 31750
L39800 31790
L39850 31840
L39870 31890
" />
<g transform="rotate(-90 41010 32000)">
<text x="41010" y="32250"
textLength="1060" font-size="660" lengthAdjust="spacingAndGlyphs"
text-anchor="middle" opacity="0">R2</text>
</g>
<path d="M41230 32080
L40990 32250
" />
<path d="M41230 32360
L40730 32360
L40730 32170
L40760 32130
L40780 32100
L40830 32080
L40900 32080
L40950 32100
L40970 32130
L40990 32170
L40990 32360
" />
<path d="M40780 31890
L40760 31860
L40730 31820
L40730 31700
L40760 31650
L40780 31630
L40830 31600
L40870 31600
L40950 31630
L41230 31910
L41230 31600
" />
<text x="43000" y="32230"
textLength="560" font-size="660" lengthAdjust="spacingAndGlyphs"
text-anchor="middle" opacity="0">S</text>
<path d="M42850 32180
L42920 32200
L43040 32200
L43090 32180
L43110 32150
L43140 32110
L43140 32060
L43110 32010
L43090 31990
L43040 31960
L42950 31940
L42900 31920
L42880 31890
L42850 31840
L42850 31800
L42880 31750
L42900 31730
L42950 31700
L43070 31700
L43140 31730
" />
<text x="37500" y="32230"
textLength="460" font-size="660" lengthAdjust="spacingAndGlyphs"
text-anchor="middle" opacity="0">T</text>
<path d="M37350 31700
L37640 31700
" />
<path d="M37500 32200
L37500 31700
" />
</g>
<g style="fill:#000000; fill-opacity:0.0; 
stroke:#000000; stroke-width:100; stroke-opacity:1; 
stroke-linecap:round; stroke-linejoin:round;">
<rect x="39500" y="30500" width="1000" height="3000" rx="0" />
<rect x="40500" y="30500" width="1000" height="3000" rx="0" />
<rect x="41500" y="30500" width="3000" height="3000" rx="0" />
<rect x="44500" y="30000" width="1500" height="4000" rx="0" />
<path style="fill:#000000; fill-opacity:0.0; 
stroke:#000000; stroke-width:100; stroke-opacity:1; 
stroke-linecap:round; stroke-linejoin:round;fill:none"
d="M 39500,33500
39000,33500
38500,33000
37000,33500
36000,32500
36000,31500
37000,30500
38500,31000
39000,30500
39500,30500
Z" /> 
</g>
<g style="fill:#000000; fill-opacity:0.0; 
stroke:#000000; stroke-width:80; stroke-opacity:1; 
stroke-linecap:round; stroke-linejoin:round;">
<path d="M46000 31500
L47000 31500
" />
<text x="46500" y="31380"
textLength="1060" font-size="660" lengthAdjust="spacingAndGlyphs"
text-anchor="middle" opacity="0">R1</text>
<path d="M46410 31350
L46250 31110
" />
<path d="M46130 31350
L46130 30850
L46320 30850
L46360 30880
L46390 30900
L46410 30950
L46410 31020
L46390 31070
L46360 31090
L46320 31110
L46130 31110
" />
<path d="M46890 31350
L46600 31350
" />
<path d="M46750 31350
L46750 30850
L46700 30920
L46650 30970
L46600 30990
" />
<path d="M46000 32500
L47000 32500
" />
<text x="46500" y="32380"
textLength="1060" font-size="660" lengthAdjust="spacingAndGlyphs"
text-anchor="middle" opacity="0">R2</text>
<path d="M46410 32350
L46250 32110
" />
<path d="M46130 32350
L46130 31850
L46320 31850
L46360 31880
L46390 31900
L46410 31950
L46410 32020
L46390 32070
L46360 32090
L46320 32110
L46130 32110
" />
<path d="M46600 31900
L46630 31880
L46670 31850
L46790 31850
L46840 31880
L46860 31900
L46890 31950
L46890 31990
L46860 32070
L46580 32350
L46890 32350
" />
<path d="M46000 33500
L47000 33500
" />
<text x="46500" y="33380"
textLength="560" font-size="660" lengthAdjust="spacingAndGlyphs"
text-anchor="middle" opacity="0">S</text>
<path d="M46350 33330
L46420 33350
L46540 33350
L46590 33330
L46610 33300
L46640 33260
L46640 33210
L46610 33160
L46590 33140
L46540 33110
L46450 33090
L46400 33070
L46380 33040
L46350 32990
L46350 32950
L46380 32900
L46400 32880
L46450 32850
L46570 32850
L46640 32880
" />
<path d="M46000 30500
L47000 30500
" />
<text x="46500" y="30380"
textLength="460" font-size="660" lengthAdjust="spacingAndGlyphs"
text-anchor="middle" opacity="0">T</text>
<path d="M46350 29850
L46640 29850
" />
<path d="M46500 30350
L46500 29850
" />
<text x="35250" y="31780"
textLength="890" font-size="660" lengthAdjust="spacingAndGlyphs"
text-anchor="middle" opacity="0">J?</text>
<path d="M35100 31250
L35100 31610
L35080 31680
L35030 31730
L34960 31750
L34910 31750
" />
<path d="M35410 31700
L35440 31730
L35410 31750
L35390 31730
L35410 31700
L35410 31750
" />
<path d="M35320 31280
L35360 31250
L35480 31250
L35530 31280
L35550 31320
L35550 31370
L35530 31420
L35510 31440
L35460 31470
L35440 31490
L35410 31540
L35410 31560
" />
<text x="40640" y="29710"
textLength="9720" font-size="660" lengthAdjust="spacingAndGlyphs"
text-anchor="middle" opacity="0">Android Smartphone Plug</text>
<path d="M35910 29540
L36150 29540
" />
<path d="M35860 29680
L36030 29180
L36190 29680
" />
<path d="M36360 29350
L36360 29680
" />
<path d="M36360 29400
L36390 29370
L36430 29350
L36500 29350
L36550 29370
L36580 29420
L36580 29680
" />
<path d="M37030 29680
L37030 29180
" />
<path d="M37030 29660
L36980 29680
L36890 29680
L36840 29660
L36810 29630
L36790 29590
L36790 29440
L36810 29400
L36840 29370
L36890 29350
L36980 29350
L37030 29370
" />
<path d="M37270 29680
L37270 29350
" />
<path d="M37270 29440
L37290 29400
L37310 29370
L37360 29350
L37410 29350
" />
<path d="M37650 29680
L37600 29660
L37580 29630
L37550 29590
L37550 29440
L37580 29400
L37600 29370
L37650 29350
L37720 29350
L37770 29370
L37790 29400
L37810 29440
L37810 29590
L37790 29630
L37770 29660
L37720 29680
L37650 29680
" />
<path d="M38030 29680
L38030 29350
" />
<path d="M38030 29180
L38000 29210
L38030 29230
L38050 29210
L38030 29180
L38030 29230
" />
<path d="M38480 29680
L38480 29180
" />
<path d="M38480 29660
L38430 29680
L38340 29680
L38290 29660
L38270 29630
L38240 29590
L38240 29440
L38270 29400
L38290 29370
L38340 29350
L38430 29350
L38480 29370
" />
<path d="M39080 29660
L39150 29680
L39270 29680
L39310 29660
L39340 29630
L39360 29590
L39360 29540
L39340 29490
L39310 29470
L39270 29440
L39170 29420
L39120 29400
L39100 29370
L39080 29320
L39080 29280
L39100 29230
L39120 29210
L39170 29180
L39290 29180
L39360 29210
" />
<path d="M39580 29680
L39580 29350
" />
<path d="M39580 29400
L39600 29370
L39650 29350
L39720 29350
L39770 29370
L39790 29420
L39790 29680
" />
<path d="M39790 29420
L39810 29370
L39860 29350
L39930 29350
L39980 29370
L40000 29420
L40000 29680
" />
<path d="M40460 29680
L40460 29420
L40430 29370
L40390 29350
L40290 29350
L40240 29370
" />
<path d="M40460 29660
L40410 29680
L40290 29680
L40240 29660
L40220 29610
L40220 29560
L40240 29510
L40290 29490
L40410 29490
L40460 29470
" />
<path d="M40690 29680
L40690 29350
" />
<path d="M40690 29440
L40720 29400
L40740 29370
L40790 29350
L40840 29350
" />
<path d="M40930 29350
L41120 29350
" />
<path d="M41000 29180
L41000 29610
L41030 29660
L41080 29680
L41120 29680
" />
<path d="M41290 29350
L41290 29850
" />
<path d="M41290 29370
L41340 29350
L41430 29350
L41480 29370
L41500 29400
L41530 29440
L41530 29590
L41500 29630
L41480 29660
L41430 29680
L41340 29680
L41290 29660
" />
<path d="M41740 29680
L41740 29180
" />
<path d="M41960 29680
L41960 29420
L41930 29370
L41890 29350
L41810 29350
L41770 29370
L41740 29400
" />
<path d="M42270 29680
L42220 29660
L42190 29630
L42170 29590
L42170 29440
L42190 29400
L42220 29370
L42270 29350
L42340 29350
L42390 29370
L42410 29400
L42430 29440
L42430 29590
L42410 29630
L42390 29660
L42340 29680
L42270 29680
" />
<path d="M42650 29350
L42650 29680
" />
<path d="M42650 29400
L42670 29370
L42720 29350
L42790 29350
L42840 29370
L42860 29420
L42860 29680
" />
<path d="M43290 29660
L43240 29680
L43150 29680
L43100 29660
L43080 29610
L43080 29420
L43100 29370
L43150 29350
L43240 29350
L43290 29370
L43310 29420
L43310 29470
L43080 29510
" />
<path d="M43910 29680
L43910 29180
L44100 29180
L44150 29210
L44170 29230
L44190 29280
L44190 29350
L44170 29400
L44150 29420
L44100 29440
L43910 29440
" />
<path d="M44480 29680
L44430 29660
L44410 29610
L44410 29180
" />
<path d="M44890 29350
L44890 29680
" />
<path d="M44670 29350
L44670 29610
L44690 29660
L44740 29680
L44810 29680
L44860 29660
L44890 29630
" />
<path d="M45340 29350
L45340 29750
L45310 29800
L45290 29820
L45240 29850
L45170 29850
L45120 29820
" />
<path d="M45340 29660
L45290 29680
L45190 29680
L45150 29660
L45120 29630
L45100 29590
L45100 29440
L45120 29400
L45150 29370
L45190 29350
L45290 29350
L45340 29370
" />
</g>
</g>
<g style="fill:#000000; fill-opacity:0.0; 
stroke:#000000; stroke-width:0; stroke-opacity:1; 
stroke-linecap:round; stroke-linejoin:round;">
<g >
</g>
<g style="fill:#000000; fill-opacity:0.0; 
stroke:#000000; stroke-width:80; stroke-opacity:1; 
stroke-linecap:round; stroke-linejoin:round;">
<path style="fill:#000000; fill-opacity:0.0; 
stroke:#000000; stroke-width:80; stroke-opacity:1; 
stroke-linecap:round; stroke-linejoin:round;fill:none"
d="M 53500,33500
53500,34000
54000,34000
53500,34500
53000,34000
53500,34000
" /> 
<text x="53550" y="35530"
textLength="1600" font-size="660" lengthAdjust="spacingAndGlyphs"
text-anchor="middle" opacity="0">GND</text>
<path d="M53160 35030
L53120 35000
L53050 35000
L52970 35030
L52930 35070
L52900 35120
L52880 35220
L52880 35290
L52900 35380
L52930 35430
L52970 35480
L53050 35500
L53090 35500
L53160 35480
L53190 35450
L53190 35290
L53090 35290
" />
<path d="M53400 35500
L53400 35000
L53690 35500
L53690 35000
" />
<path d="M53930 35500
L53930 35000
L54050 35000
L54120 35030
L54160 35070
L54190 35120
L54210 35220
L54210 35290
L54190 35380
L54160 35430
L54120 35480
L54050 35500
L53930 35500
" />
</g>
</g>
<g style="fill:#000000; fill-opacity:0.0; 
stroke:#000000; stroke-width:80; stroke-opacity:1; 
stroke-linecap:round; stroke-linejoin:round;">
<path d="M53500 31500
L47000 31500
" />
<path d="M47000 39000
L53500 39000
" />
<path d="M47000 36500
L47000 39000
" />
<path d="M47000 34500
L47000 33500
" />
<path d="M48500 37000
L52000 37000
" />
<path d="M48500 36500
L48500 37000
" />
<path d="M47000 33500
L48500 33500
" />
<path d="M47000 30500
L53500 30500
" />
<path d="M52000 32500
L53500 32500
" />
<path d="M52000 37000
L52000 32500
" />
<path d="M53500 37000
L52000 37000
" />
<path d="M47000 32500
L52000 32500
" />
<path d="M53500 32500
L53500 33500
" />
</g>
<g style="fill:#000000; fill-opacity:0.0; 
stroke:#000000; stroke-width:0; stroke-opacity:1; 
stroke-linecap:round; stroke-linejoin:round;">
</g>
<g style="fill:#000000; fill-opacity:1.0; 
stroke:#000000; stroke-width:100; stroke-opacity:1; 
stroke-linecap:round; stroke-linejoin:round;">
<circle cx="52000" cy="37000" r="200" /> 
</g>
<g style="fill:#000000; fill-opacity:1.0; 
stroke:#000000; stroke-width:0; stroke-opacity:1; 
stroke-linecap:round; stroke-linejoin:round;">
</g>
<g style="fill:#000000; fill-opacity:1.0; 
stroke:#000000; stroke-width:100; stroke-opacity:1; 
stroke-linecap:round; stroke-linejoin:round;">
<circle cx="52000" cy="32500" r="200" /> 
</g>
<g style="fill:#000000; fill-opacity:1.0; 
stroke:#000000; stroke-width:0; stroke-opacity:1; 
stroke-linecap:round; stroke-linejoin:round;">
</g>
<g style="fill:#000000; fill-opacity:1.0; 
stroke:#000000; stroke-width:100; stroke-opacity:1; 
stroke-linecap:round; stroke-linejoin:round;">
<circle cx="47000" cy="33500" r="200" /> 
</g>
<g style="fill:#000000; fill-opacity:1.0; 
stroke:#000000; stroke-width:0; stroke-opacity:1; 
stroke-linecap:round; stroke-linejoin:round;">
</g>
<g style="fill:#000000; fill-opacity:1.0; 
stroke:#000000; stroke-width:100; stroke-opacity:1; 
stroke-linecap:round; stroke-linejoin:round;">
<circle cx="53500" cy="32500" r="200" /> 
</g> 
</svg>
